# xmcd
#
# Track frame offsets: 
#        150
#        16170
#        27951
#        38393
#        52922
#        67469
#        81498
#        93365
#        109844
#        124433
#        139665
#        154431
#        169382
#        179400
#        197625
#
# Disc length: 3346 seconds
#
# Revision: 2
# Processed by: cddbd v1.5.2PL0 Copyright (c) Steve Scherf et al.
# Submitted via: ExactAudioCopy v0.99pb5
#
DISCID=d30d100f
DTITLE=P.O.S. - Never Better
DYEAR=2009
DGENRE=Rap
TTITLE0=Let It Rattle
TTITLE1=Drumroll (We're All Thirsty) feat. Doomtree
TTITLE2=Savion Glover
TTITLE3=Purexed
TTITLE4=Graves (We Wrote The Book)
TTITLE5=Goodbye
TTITLE6=Get Smokes feat. Jessy Green
TTITLE7=Been Afraid
TTITLE8=Low Light Low Life feat. Cecil Otter, Dessa, and Sims
TTITLE9=The Basics (Alright)
TTITLE10=Out Of Category
TTITLE11=Optimist (We Are Not For Them)
TTITLE12=Terrorish feat. Jason Shevchuk
TTITLE13=Never Better feat. Judah Nagler
TTITLE14=The Brave and The Snake/Hand Made Hand Gun feat. Astronautalis
EXTD=YEAR: 2009
EXTT0=
EXTT1=
EXTT2=
EXTT3=
EXTT4=
EXTT5=
EXTT6=
EXTT7=
EXTT8=
EXTT9=
EXTT10=
EXTT11=
EXTT12=
EXTT13=
EXTT14=
PLAYORDER=
